<svg width="64" height="64" viewBox="0 0 64 64" fill="none" xmlns="http://www.w3.org/2000/svg">
<path fill-rule="evenodd" clip-rule="evenodd" d="M6.40625 8.375C6.40625 7.2877 7.2877 6.40625 8.375 6.40625H12.0027C13.7427 6.40625 15.3333 7.38931 16.1114 8.94562L17.4668 11.6562H53.3633C55.8828 11.6562 57.4622 14.378 56.2122 16.5654L47.5901 31.654C46.7722 33.0854 45.2502 33.9688 43.6017 33.9688H23.9036L20.4297 39.5272C20.1565 39.9643 20.4707 40.5312 20.9862 40.5312H50.375C51.4623 40.5312 52.3438 41.4127 52.3438 42.5C52.3438 43.5873 51.4623 44.4688 50.375 44.4688H20.9862C17.3781 44.4688 15.1784 40.5 17.0907 37.4403L20.6379 31.7645L14.4361 14.3994L12.5896 10.7065C12.4785 10.4842 12.2512 10.3438 12.0027 10.3438H8.375C7.2877 10.3438 6.40625 9.4623 6.40625 8.375ZM19.0437 15.5938L24.1999 30.0312H43.6017C43.8372 30.0312 44.0545 29.905 44.1716 29.7005L52.2324 15.5938H19.0437ZM26.75 51.6875C26.75 53.862 24.9871 55.625 22.8125 55.625C20.6379 55.625 18.875 53.862 18.875 51.6875C18.875 49.513 20.6379 47.75 22.8125 47.75C24.9871 47.75 26.75 49.513 26.75 51.6875ZM46.4375 55.625C48.612 55.625 50.375 53.862 50.375 51.6875C50.375 49.513 48.612 47.75 46.4375 47.75C44.263 47.75 42.5 49.513 42.5 51.6875C42.5 53.862 44.263 55.625 46.4375 55.625Z" fill="#4C5430"/>
</svg>
