<svg width="52" height="52" viewBox="0 0 52 52" fill="none" xmlns="http://www.w3.org/2000/svg">
<g filter="url(#filter0_d_329_8)">
<path d="M4.76777 5.40864C3.79146 4.43232 3.79146 2.84941 4.76777 1.8731V1.8731C5.74408 0.896792 7.32699 0.896792 8.3033 1.8731L45.8623 39.4321C46.8386 40.4084 46.8386 41.9913 45.8623 42.9676V42.9676C44.886 43.9439 43.3031 43.9439 42.3267 42.9676L4.76777 5.40864Z" fill="#4C5430"/>
<path d="M47.2322 5.33382C48.2085 4.35751 48.2085 2.7746 47.2322 1.79829V1.79829C46.2559 0.821978 44.673 0.821978 43.6967 1.79829L6.13772 39.3573C5.16141 40.3336 5.16141 41.9165 6.13772 42.8928V42.8928C7.11403 43.8691 8.69695 43.8691 9.67326 42.8928L47.2322 5.33382Z" fill="#4C5430"/>
</g>
<defs>
<filter id="filter0_d_329_8" x="0.0351562" y="1.06606" width="51.9297" height="50.6338" filterUnits="userSpaceOnUse" color-interpolation-filters="sRGB">
<feFlood flood-opacity="0" result="BackgroundImageFix"/>
<feColorMatrix in="SourceAlpha" type="matrix" values="0 0 0 0 0 0 0 0 0 0 0 0 0 0 0 0 0 0 127 0" result="hardAlpha"/>
<feOffset dy="4"/>
<feGaussianBlur stdDeviation="2"/>
<feComposite in2="hardAlpha" operator="out"/>
<feColorMatrix type="matrix" values="0 0 0 0 0 0 0 0 0 0 0 0 0 0 0 0 0 0 0.25 0"/>
<feBlend mode="normal" in2="BackgroundImageFix" result="effect1_dropShadow_329_8"/>
<feBlend mode="normal" in="SourceGraphic" in2="effect1_dropShadow_329_8" result="shape"/>
</filter>
</defs>
</svg>
