<svg width="39" height="20" viewBox="0 0 39 20" fill="none" xmlns="http://www.w3.org/2000/svg">
<g clip-path="url(#clip0_95_167)">
<mask id="mask0_95_167" style="mask-type:luminance" maskUnits="userSpaceOnUse" x="0" y="0" width="39" height="20">
<path d="M39 0H0V20H39V0Z" fill="white"/>
</mask>
<g mask="url(#mask0_95_167)">
<path d="M23.7818 9.99991C23.7818 15.6965 18.9825 20.3124 13.0601 20.3124C7.13774 20.3124 2.33838 15.6955 2.33838 9.99991C2.33838 4.30431 7.13892 -0.3125 13.0601 -0.3125C18.9813 -0.3125 23.7818 4.30431 23.7818 9.99991Z" fill="#E2574C"/>
<path d="M25.9377 -0.3125C23.5332 -0.3125 21.3196 0.457855 19.5307 1.74385L19.5392 1.74487C19.891 2.07174 20.2792 2.3018 20.5785 2.6781L18.3477 2.71214C17.9981 3.05145 17.6796 3.42063 17.3793 3.80428H21.3131C21.6124 4.1497 21.889 4.44987 22.14 4.83138H16.6661C16.4655 5.16345 16.28 5.5048 16.118 5.8595H22.7632C22.9369 6.21318 23.0924 6.48032 23.2245 6.8547H15.7244C15.6054 7.21053 15.5035 7.5745 15.4263 7.94571H23.5386C23.618 8.30255 23.6791 8.63247 23.721 8.96874H15.2654C15.2299 9.30805 15.2117 9.65245 15.2117 10H23.7821C23.7821 10.3651 23.7551 10.7033 23.7165 11.0313H15.2654C15.3018 11.3809 15.3555 11.7243 15.4263 12.0626H23.5257C23.4421 12.3967 23.3455 12.7329 23.2243 13.0815H15.6997C15.8133 13.4341 15.9518 13.7765 16.103 14.1106H22.7632C22.5788 14.486 22.3696 14.786 22.1391 15.1376H16.6469C16.8636 15.4986 17.1027 15.843 17.3621 16.173L21.3132 16.2297C20.9764 16.6185 20.5443 16.8526 20.1506 17.1929C20.172 17.2094 19.521 17.1909 18.2394 17.1713C20.1891 19.106 22.9144 20.3124 25.9377 20.3124C31.861 20.3124 36.6626 15.6955 36.6626 10C36.6626 4.30454 31.8622 -0.3125 25.9377 -0.3125Z" fill="#F4B459"/>
</g>
</g>
<defs>
<clipPath id="clip0_95_167">
<rect width="39" height="20" fill="white"/>
</clipPath>
</defs>
</svg>
