<svg width="64" height="34" viewBox="0 0 64 34" fill="none" xmlns="http://www.w3.org/2000/svg">
<path fill-rule="evenodd" clip-rule="evenodd" d="M56.8157 7.4375H44.6687C45.3217 11.4707 49.24 15.2436 53.5502 15.2436H63.2157C63.3463 14.8533 63.3462 14.3329 63.3462 13.9426C63.3462 10.2997 60.4727 7.4375 56.8157 7.4375Z" fill="#00B4E6"/>
<path fill-rule="evenodd" clip-rule="evenodd" d="M45.7141 15.8938V25.6514H51.5917V20.4474H56.816C59.6896 20.4474 62.1713 18.4958 62.9549 15.8938H45.7141Z" fill="#4DB45F"/>
<path fill-rule="evenodd" clip-rule="evenodd" d="M24.8157 7.4375V25.6517H30.0402C30.0402 25.6517 31.3462 25.6517 31.9995 24.3508C35.5259 17.3253 36.5708 15.2436 36.5708 15.2436H37.2238V25.6517H43.1015V7.4375H37.877C37.877 7.4375 36.5708 7.56759 35.9178 8.73851C32.9136 14.7232 31.3462 17.8457 31.3462 17.8457H30.6932V7.4375H24.8157Z" fill="#4DB45F"/>
<path fill-rule="evenodd" clip-rule="evenodd" d="M0 25.6517V7.4375H5.87755C5.87755 7.4375 7.57551 7.4375 8.48979 10.0395C10.8408 16.935 11.102 17.8457 11.102 17.8457C11.102 17.8457 11.6245 16.1543 13.7143 10.0395C14.6286 7.4375 16.3265 7.4375 16.3265 7.4375H22.2042V25.6517H16.3265V15.8941H15.6735L12.4082 25.6517H9.79592L6.5306 15.8941H5.87755V25.6517H0Z" fill="#4DB45F"/>
</svg>
