<svg width="61" height="21" viewBox="0 0 61 21" fill="none" xmlns="http://www.w3.org/2000/svg">
<path d="M3.2336 2.87496C4.2116 1.94601 5.3698 1.21379 6.64141 0.720517C7.91301 0.227247 9.27286 -0.0173091 10.6425 0.000952233C13.0852 -0.0307167 15.4631 0.76191 17.3683 2.24286C16.6868 2.75533 16.0113 3.27667 15.2946 3.74189C14.6936 3.39915 14.0696 3.09571 13.4268 2.83361C12.6502 2.57113 11.8421 2.40635 11.0222 2.34328C9.92718 2.30309 8.83484 2.47391 7.80852 2.84583C6.78221 3.21775 5.84237 3.78337 5.04351 4.50987C3.46931 5.91387 2.52655 7.85999 2.41784 9.93001C2.31497 11.5229 2.70879 13.1089 3.54819 14.4822C4.38759 15.8556 5.6338 16.9528 7.12509 17.6316C8.61637 18.3103 10.2839 18.5392 11.9111 18.2886C13.5384 18.0379 15.0503 17.3193 16.2507 16.226C17.7707 14.8779 18.7031 13.0194 18.8581 11.0288C18.9084 10.6788 18.7376 10.2136 19.1112 9.98613C19.7988 9.49876 20.4743 8.98629 21.1986 8.54765C21.5262 10.2168 21.4123 11.9392 20.8677 13.5543C20.2777 15.32 19.2102 16.9004 17.7762 18.1312C16.3421 19.362 14.5939 20.1983 12.7132 20.5532C11.7378 20.7209 10.7446 20.7705 9.75662 20.7009C7.30979 20.509 5.00709 19.5023 3.23999 17.8518C1.4729 16.2013 0.350483 14.009 0.0635713 11.6476C-0.0211904 10.7535 -0.0211904 9.8538 0.0635713 8.9597C0.386011 6.64457 1.50246 4.50158 3.2336 2.87496Z" fill="#219F38"/>
<path d="M29.5438 2.97236C31.3735 2.99599 33.2216 2.89999 35.0528 3.05211C36.5959 3.00339 38.106 3.49112 39.31 4.42708C39.7228 4.85185 40.0401 5.35492 40.2419 5.90451C40.4438 6.4541 40.5257 7.03827 40.4826 7.6201C40.5232 8.24804 40.4226 8.87704 40.1875 9.46355C39.9523 10.0501 39.5884 10.5801 39.1209 11.0169C37.9743 11.8702 36.579 12.3514 35.1336 12.3919C34.0983 12.4288 33.0599 12.3919 32.0231 12.4096C31.9667 13.8289 32.0978 15.257 31.9514 16.6704C31.1463 16.6704 30.3412 16.6704 29.5361 16.6704C29.5041 12.9694 29.5362 9.26682 29.5224 5.56428C29.5331 4.70474 29.498 3.84372 29.5438 2.98417M32.0246 5.27334C32.0048 6.8979 32.0124 8.52247 32.0246 10.1352C33.1209 10.1352 34.2188 10.1618 35.3151 10.1175C36.0322 10.0584 36.7119 9.78192 37.2577 9.32737C37.5537 8.96069 37.7523 8.52926 37.836 8.07092C37.9197 7.61257 37.8861 7.14133 37.738 6.69852C37.5936 6.33597 37.346 6.02048 37.0241 5.78863C36.7021 5.55677 36.3189 5.41805 35.9189 5.38853C34.6255 5.25717 33.3242 5.21473 32.0246 5.26152V5.27334Z" fill="#219F38"/>
<path d="M18.6474 4.29777C18.7998 4.187 18.9706 4.08066 19.1368 3.97876C19.6563 4.60144 20.0824 5.29205 20.4024 6.03015C17.5617 8.09778 14.6875 10.1255 11.8392 12.1873C11.4648 12.4765 11.0699 12.74 10.6575 12.9759C9.31367 12.1882 7.98456 11.3774 6.6702 10.5435C6.65952 9.57613 6.64733 8.60582 6.6702 7.63846C7.97236 8.36361 9.20592 9.19805 10.4989 9.9424C10.6728 10.0901 10.8649 9.91138 11.0143 9.81834C13.5607 7.97815 16.105 6.13796 18.6474 4.29777Z" fill="#219F38"/>
<path d="M41.748 7.6139C42.8415 6.93853 44.1307 6.62261 45.4242 6.71301C46.5106 6.63121 47.597 6.86957 48.5409 7.3968C48.9524 7.71053 49.2792 8.11638 49.493 8.57944C49.7068 9.0425 49.8013 9.54893 49.7684 10.0552C49.7684 12.2292 49.7684 14.4046 49.7684 16.5771C49.041 16.5874 48.3137 16.5771 47.5879 16.5771C47.5788 16.0233 47.5879 15.4694 47.5727 14.9156C47.2774 15.4722 46.825 15.9362 46.2681 16.2536C45.7113 16.571 45.0728 16.7288 44.4271 16.7085C43.5594 16.7938 42.6899 16.5638 41.9874 16.0631C41.6472 15.7421 41.3818 15.3544 41.2088 14.926C41.0357 14.4976 40.9592 14.0384 40.9841 13.579C40.9972 12.9241 41.2569 12.2965 41.7144 11.8141C42.2391 11.361 42.8949 11.0748 43.593 10.9945C44.8521 10.8843 46.1169 10.8483 47.3805 10.8867C47.4568 10.5329 47.4369 10.166 47.3227 9.82197C47.2086 9.4779 47.0041 9.16844 46.7294 8.92389C45.9525 8.61949 45.0982 8.55199 44.2807 8.73042C43.2795 8.9194 42.3836 9.45487 41.7602 10.2368C41.7312 9.364 41.7602 8.48969 41.748 7.61833M43.4969 13.037C43.3993 13.5258 43.3658 14.186 43.8888 14.4666C44.4294 14.7422 45.0515 14.829 45.6505 14.7126C46.2495 14.5961 46.7888 14.2834 47.1777 13.8271C47.5162 13.4239 47.4034 12.8805 47.4125 12.4049C46.5404 12.4049 45.6667 12.3872 44.7961 12.4197C44.5449 12.4098 44.295 12.4598 44.0685 12.5654C43.8419 12.671 43.6456 12.8289 43.4969 13.0252V13.037Z" fill="#219F38"/>
<path d="M50.9683 6.94203C51.8298 6.8992 52.6928 6.9243 53.5604 6.9243C54.5149 9.11895 55.3429 11.3653 56.305 13.5599C57.0781 11.3579 57.7901 9.12929 58.5602 6.93169C59.3744 6.91101 60.1871 6.91544 60.9998 6.93169C60.4799 8.6685 59.7129 10.3285 59.1457 12.0476C58.3955 13.9424 57.7322 15.8683 56.9911 17.7646C56.7125 18.7329 56.1256 19.5913 55.3139 20.2177C54.858 20.4385 54.3541 20.5503 53.8445 20.5436C53.3348 20.5369 52.8343 20.412 52.3848 20.1793C52.3558 19.4866 52.3619 18.7925 52.3848 18.0999C52.6204 18.2551 52.8877 18.3598 53.1686 18.4066C53.4495 18.4535 53.7375 18.4416 54.0133 18.3716C54.4969 18.1042 54.8588 17.6703 55.0272 17.1561C55.105 16.9582 55.2376 16.7396 55.1263 16.527C53.7373 13.331 52.3299 10.1409 50.9683 6.94203Z" fill="#219F38"/>
</svg>
