<svg width="29" height="27" viewBox="0 0 29 27" fill="none" xmlns="http://www.w3.org/2000/svg">
<path d="M27.289 0.00191826C26.9678 0.0158506 26.6551 0.104236 26.3731 0.215866C26.094 0.326749 24.4872 1.00475 22.1144 2.00767C19.7417 3.0106 16.6572 4.31662 13.5997 5.61167C7.48456 8.20176 1.47543 10.7502 1.47543 10.7502L1.51922 10.7337C1.51922 10.7337 1.15654 10.8535 0.788832 11.1068C0.604978 11.2334 0.40718 11.3969 0.245226 11.6353C0.0832715 11.8737 -0.0351278 12.2115 0.00949119 12.5688C0.166213 13.8238 1.48187 14.1797 1.48187 14.1797L1.48702 14.1823L7.35849 16.1689C7.50819 16.6627 9.13933 22.0448 9.49813 23.1846C9.69629 23.8148 9.88177 24.1783 10.0752 24.4263C10.172 24.5504 10.2735 24.6464 10.3857 24.7166C10.4303 24.7445 10.4771 24.7655 10.5235 24.7841H10.5261C10.5318 24.7866 10.5372 24.7869 10.5428 24.7892L10.5274 24.7854C10.5382 24.7897 10.5488 24.797 10.5596 24.8007C10.5805 24.808 10.5933 24.8077 10.6201 24.8134C11.2926 25.0455 11.849 24.6148 11.849 24.6148L11.8722 24.5969L15.4791 21.2897L21.3325 25.8017L21.406 25.8348C22.4305 26.2845 23.3571 26.0336 23.8702 25.6208C24.3833 25.2081 24.5851 24.6759 24.5851 24.6759L24.607 24.6199L28.9082 2.45722C29.0183 1.96139 29.0339 1.5328 28.9301 1.14552C28.8263 0.758233 28.5742 0.42157 28.2577 0.234968C27.9413 0.0483661 27.6102 -0.012014 27.289 0.00191826ZM27.3238 1.32763C27.4543 1.32165 27.5509 1.3364 27.5814 1.35437C27.6119 1.37234 27.6256 1.36998 27.6549 1.47917C27.6841 1.58837 27.7 1.81836 27.6201 2.17832L27.6175 2.18596L23.3408 24.22C23.3307 24.2422 23.2415 24.446 23.0381 24.6097C22.8305 24.7767 22.5996 24.907 21.9869 24.653L15.586 19.7182L15.4057 19.5781L15.4018 19.5819L13.4876 18.162L24.2451 5.64987C24.3277 5.55398 24.3805 5.43647 24.3971 5.31154C24.4136 5.18662 24.3932 5.05963 24.3383 4.94594C24.2833 4.83224 24.1963 4.73671 24.0876 4.67089C23.979 4.60507 23.8533 4.57178 23.7259 4.57504C23.6015 4.57824 23.4804 4.61621 23.3768 4.68456L7.81063 14.9438L1.93015 12.9534C1.93015 12.9534 1.34622 12.6321 1.31827 12.4083C1.31672 12.3959 1.30982 12.4071 1.34017 12.3625C1.37051 12.3178 1.44678 12.2424 1.54241 12.1765C1.73366 12.0448 1.95205 11.9651 1.95205 11.9651L1.97395 11.9575L1.99585 11.9486C1.99585 11.9486 8.00529 9.39999 14.1201 6.81003C17.1775 5.51505 20.2614 4.20998 22.6336 3.20731C25.0052 2.20489 26.7188 1.48335 26.8639 1.42569C27.0291 1.36029 27.1933 1.3336 27.3238 1.32763ZM20.1899 8.35223L12.032 17.841L12.0281 17.8449C12.0154 17.86 12.0033 17.8757 11.992 17.892C11.9791 17.9096 11.967 17.9279 11.956 17.9467C11.9101 18.0237 11.8807 18.109 11.8696 18.1976V18.2027L10.8069 22.9274C10.7892 22.8763 10.7769 22.8577 10.758 22.7975V22.7962C10.4204 21.724 8.88147 16.6481 8.66855 15.9461L20.1899 8.35223ZM12.953 19.396L14.4189 20.4835L12.2651 22.4575L12.953 19.396Z" fill="black"/>
</svg>
