<svg width="64" height="64" viewBox="0 0 64 64" fill="none" xmlns="http://www.w3.org/2000/svg">
<path fill-rule="evenodd" clip-rule="evenodd" d="M23.4687 18.875C23.4687 14.1633 27.2883 10.3438 31.9999 10.3438C36.7115 10.3438 40.5312 14.1633 40.5312 18.875C40.5312 23.5867 36.7115 27.4062 31.9999 27.4062C27.2883 27.4062 23.4687 23.5867 23.4687 18.875ZM31.9999 6.40625C25.1137 6.40625 19.5312 11.9887 19.5312 18.875C19.5312 25.7613 25.1137 31.3438 31.9999 31.3438C38.8863 31.3438 44.4687 25.7613 44.4687 18.875C44.4687 11.9887 38.8863 6.40625 31.9999 6.40625ZM17.0729 48.8063C19.6635 43.1452 25.3753 39.2188 31.9999 39.2188C38.6246 39.2188 44.3364 43.1452 46.927 48.8063C47.4725 49.9986 47.2247 51.0911 46.4358 51.9936C45.5972 52.9533 44.1442 53.6562 42.4999 53.6562H21.4999C19.8556 53.6562 18.4029 52.9533 17.564 51.9936C16.7753 51.0911 16.5273 49.9986 17.0729 48.8063ZM31.9999 35.2812C23.7786 35.2812 16.7004 40.158 13.4925 47.1678C12.2282 49.9306 12.9143 52.6569 14.5993 54.5847C16.2343 56.4553 18.795 57.5938 21.4999 57.5938H42.4999C45.205 57.5938 47.7657 56.4553 49.4005 54.5847C51.0858 52.6569 51.7717 49.9306 50.5075 47.1678C47.2995 40.158 40.2214 35.2812 31.9999 35.2812Z" fill="#4C5430"/>
</svg>
