<svg width="58" height="31" viewBox="0 0 58 31" fill="none" xmlns="http://www.w3.org/2000/svg">
<g clip-path="url(#clip0_95_160)">
<mask id="mask0_95_160" style="mask-type:luminance" maskUnits="userSpaceOnUse" x="0" y="0" width="58" height="31">
<path d="M58 0H0V31H58V0Z" fill="white"/>
</mask>
<g mask="url(#mask0_95_160)">
<path d="M23.7078 6.40527L20.7969 24.5585H25.4497L28.3588 6.40527H23.7078ZM37.742 13.7999C36.1161 12.9952 35.1195 12.4522 35.1195 11.6292C35.1394 10.8809 35.9624 10.1143 37.8002 10.1143C39.3117 10.0763 40.4228 10.4323 41.2657 10.7865L41.688 10.9754L42.3204 7.17725C41.4014 6.82124 39.9443 6.42897 38.1444 6.42897C33.5498 6.42897 30.3146 8.82298 30.2944 12.247C30.2564 14.7737 32.6108 16.1758 34.3726 17.0169C36.1724 17.8797 36.785 18.4391 36.785 19.2057C36.7653 20.3828 35.3298 20.9258 33.9904 20.9258C32.1344 20.9258 31.1374 20.6461 29.624 19.9902L29.0113 19.7105L28.3607 23.6577C29.4536 24.1446 31.4637 24.573 33.55 24.5949C38.4328 24.5949 41.6102 22.2371 41.6501 18.5881C41.6659 16.5864 40.4245 15.0532 37.742 13.7999ZM54.2484 6.46144H50.6488C49.5396 6.46144 48.6967 6.78119 48.2164 7.92193L41.3052 24.5585H46.1882L47.533 20.9567H52.9958L53.6936 24.573H58.0003L54.2484 6.46144ZM48.8871 17.3217C48.9813 17.3309 50.7613 11.4419 50.7613 11.4419L52.1786 17.3217C52.1786 17.3217 49.806 17.3217 48.8871 17.3217ZM16.9092 6.40527L12.3507 18.7387L11.8542 16.3065C11.0113 13.5001 8.36875 10.4504 5.41968 8.93555L9.5939 24.5404H14.5167L21.8321 6.40727H16.9092V6.40527Z" fill="#2394BC"/>
<path d="M10.3204 8.74657C9.96519 7.3624 8.83228 6.42885 7.29364 6.40894H0.0743477L0 6.74482C5.63155 8.13616 10.3584 12.4174 11.8919 16.4444L10.3204 8.74657Z" fill="#EFC75E"/>
</g>
</g>
<defs>
<clipPath id="clip0_95_160">
<rect width="58" height="31" fill="white"/>
</clipPath>
</defs>
</svg>
