<svg width="37" height="24" viewBox="0 0 37 24" fill="none" xmlns="http://www.w3.org/2000/svg">
<path d="M34.7608 23.1078H30.8874C29.512 23.1078 28.8036 22.3342 27.6315 21.0521C27.1587 20.5375 26.5796 19.9033 25.808 19.1451C24.2617 17.6822 23.1097 16.9041 22.489 16.9041C22.3997 16.9041 22.3365 16.9071 22.2934 16.9102C22.2195 17.2365 22.2272 18.1326 22.238 19.1527C22.2426 19.6414 22.2472 20.2066 22.2472 20.8622C22.2472 22.7248 20.8318 23.1078 18.708 23.1078C14.1507 23.1078 9.49954 20.3827 6.26372 15.818C1.57864 9.36772 0 4.13822 0 2.7443C0 1.57096 0.763906 0.898504 2.09766 0.898504H5.97263C7.59131 0.898504 8.09802 1.92327 8.44609 2.88216C10.3404 8.31845 13.1204 12.0422 14.0368 12.5063C14.0552 12.3838 14.0722 12.1831 14.0722 11.8599V6.25054C13.9998 4.94394 13.5593 4.40781 13.1712 3.93296C12.8724 3.56993 12.5351 3.15941 12.5351 2.53598C12.5351 1.74711 13.2082 0.896973 14.2924 0.896973H20.3821C21.2323 0.896973 22.2441 1.27379 22.2441 3.06444V10.6054C22.2441 10.7295 22.2565 10.8214 22.2734 10.8872C22.469 10.7999 22.7739 10.5594 23.3607 9.98349C26.0005 7.08383 27.9318 2.49462 27.9503 2.44867C28.3862 1.43156 29.2132 0.896973 30.3468 0.896973H34.2202C35.0195 0.896973 35.5986 1.1298 35.9405 1.58781C36.1669 1.88957 36.3841 2.42875 36.1284 3.28349C36.1269 3.28808 36.1253 3.29268 36.1238 3.2988C35.5755 5.53827 31.6174 11.1859 30.815 12.2337L30.8181 12.2352C30.7487 12.344 30.567 12.6319 30.5655 12.7085C30.5655 12.7085 30.5747 12.8004 30.7718 13.0486C30.7749 13.0532 30.7795 13.0593 30.7842 13.0639C30.8673 13.1635 31.1061 13.3994 31.4372 13.7318C35.2105 17.5045 37.5792 20.3628 36.8769 22.0417C36.6706 22.5288 36.1392 23.1078 34.7608 23.1078ZM22.4906 15.3723C23.2652 15.3723 24.3911 15.6909 26.883 18.0452C27.6885 18.8372 28.2861 19.4897 28.7728 20.0212C29.9001 21.2528 30.222 21.576 30.8904 21.576H34.7639C35.2367 21.576 35.4277 21.4826 35.4569 21.4489C35.5663 21.2068 35.5324 19.9998 30.3452 14.8117C29.9402 14.4057 29.6583 14.1132 29.5598 13.9937C28.7019 12.9077 29.0315 12.1862 29.5136 11.4218C29.5505 11.3606 29.5983 11.307 29.6506 11.2595C30.2621 10.4032 34.2371 4.72489 34.636 2.90207C34.6437 2.86684 34.6545 2.83161 34.6668 2.79791C34.7207 2.60031 34.7038 2.50994 34.7007 2.49309C34.6869 2.49309 34.5621 2.42875 34.2202 2.42875H30.3468C29.7538 2.42875 29.529 2.67384 29.3703 3.04146C29.2902 3.23294 27.3173 7.91712 24.4712 11.042C23.4639 12.0345 22.8925 12.4634 22.0917 12.4634C21.4017 12.4634 20.704 11.8247 20.704 10.6054V3.06444C20.704 2.58499 20.6208 2.46398 20.6147 2.45633C20.6116 2.45633 20.55 2.42875 20.3821 2.42875H14.2909C14.123 2.42875 14.0768 2.51606 14.0737 2.53904C14.0737 2.61257 14.2139 2.78413 14.3633 2.96488C14.8192 3.52091 15.5091 4.36186 15.6123 6.20765L15.6139 11.8584C15.6139 12.5799 15.6139 14.0795 14.1276 14.0795C11.9345 14.0795 8.51693 7.76088 6.99374 3.39377C6.65953 2.47471 6.48242 2.43028 5.97263 2.43028H2.09766C1.54013 2.43028 1.54013 2.51606 1.54013 2.7443C1.54013 3.35854 2.64287 8.21735 7.51739 14.9281C10.4698 19.0945 14.6528 21.576 18.7095 21.576C20.7086 21.576 20.7086 21.2773 20.7086 20.8622C20.7086 20.2127 20.704 19.6506 20.6994 19.1665C20.6794 17.0894 20.6717 16.3113 21.1938 15.7874C21.5588 15.4228 22.0331 15.3723 22.4906 15.3723Z" fill="black"/>
</svg>
