<svg width="34" height="25" viewBox="0 0 34 25" fill="none" xmlns="http://www.w3.org/2000/svg">
<path d="M27.1101 0.931396H6.72919C3.0186 0.931396 0 3.85576 0 7.4497V18.4209C0 22.0155 3.0186 24.9392 6.72919 24.9392H27.1101C30.8207 24.9392 33.8393 22.0148 33.8393 18.4209V7.4497C33.8393 3.85576 30.8207 0.931396 27.1101 0.931396ZM32.4581 18.4216C32.4581 21.2806 30.059 23.6061 27.1101 23.6061H6.72919C3.78033 23.6061 1.3812 21.2799 1.3812 18.4216V7.4497C1.3812 4.59135 3.78033 2.2652 6.72919 2.2652H27.1101C30.059 2.2652 32.4581 4.59135 32.4581 7.4497V18.4216Z" fill="black"/>
<path d="M23.0383 12.6938L13.47 7.28188C13.2573 7.16184 12.9928 7.15984 12.778 7.27855C12.5633 7.39726 12.4307 7.618 12.4307 7.85742V18.6806C12.4307 18.9193 12.5633 19.1407 12.7773 19.2594C12.8837 19.3181 13.0025 19.3475 13.1213 19.3475C13.2421 19.3475 13.3623 19.3168 13.47 19.2561L23.0383 13.8455C23.2496 13.7262 23.3801 13.5067 23.3801 13.27C23.3801 13.0332 23.2503 12.8132 23.0383 12.6938ZM13.8119 17.5168V9.0205L21.3228 13.2693L13.8119 17.5168Z" fill="black"/>
</svg>
